# xmcd
#
# Track frame offsets: 
#        150
#        56701
#        100326
#        136952
#        162712
#        185684
#        212192
#        233266
#        255776
#
# Disc length: 3688 seconds
#
# Revision: 0
# Processed by: cddbd v1.5.2PL0 Copyright (c) Steve Scherf et al.
# Submitted via: ExactAudioCopy v1.3
#
DISCID=790e6609
DTITLE=Joe Bonamassa - Live Beacon Theatre Part 2 live
DYEAR=2012
DGENRE=Blues
TTITLE0=Mountain Time
TTITLE1=Young Man Blues
TTITLE2=If Heartaches were nickels
TTITLE3=I'll take care of you
TTITLE4=Sinner's Prayer
TTITLE5=Down around my place
TTITLE6=I know a place
TTITLE7=Walk in my shadows
TTITLE8=Fire and Water
EXTD=
EXTT0=
EXTT1=
EXTT2=
EXTT3=
EXTT4=
EXTT5=
EXTT6=
EXTT7=
EXTT8=
PLAYORDER=
